<!--?xml version="1.0" encoding="UTF-8" standalone="no"?-->
<svg xmlns:dc="http://purl.org/dc/elements/1.1/" xmlns:cc="http://creativecommons.org/ns#" xmlns:rdf="http://www.w3.org/1999/02/22-rdf-syntax-ns#" xmlns:svg="http://www.w3.org/2000/svg" xmlns="http://www.w3.org/2000/svg" width="7.3779049mm" height="6.8631701mm" viewBox="0 0 7.3779049 6.8631702" version="1.1" id="svg8" style="" class="">
  <defs id="defs2">
    <clipPath clipPathUnits="userSpaceOnUse" id="clipPath1107">
      <path id="path1109" style="fill: rgb(56, 61, 97); fill-opacity: 1; stroke: rgb(160, 135, 221); stroke-width: 0.017185;" d="m 116.52069,211.17243 v -0.26595 h 0.78927 0.78926 v 0.26595 0.26595 h -0.78926 -0.78927 z m 1.57853,0.52331 v -0.25736 h 0.26595 0.26595 v 0.25736 0.25738 h -0.26595 -0.26595 z m 0.5319,0.78927 v -0.53189 h 0.5319 0.53189 v 0.26594 0.26595 h -0.26595 -0.26594 v 0.26595 0.26595 h -0.26595 -0.26595 z m -1.57853,1.32974 v -0.26595 h 0.52332 0.52331 v 0.26595 0.26595 h -0.52331 -0.52332 z m -0.5319,1.05522 v -0.25737 h -0.53189 -0.5319 v -0.26595 -0.26595 h 0.79785 0.79784 v 0.26595 0.26595 h 1.05522 1.05521 v -0.79785 -0.79784 h 0.26594 0.26595 v -0.26595 -0.26595 h 0.25737 0.25737 v 0.5319 0.53189 h -0.25737 -0.25737 v 0.78927 0.78926 h -1.5871 -1.58712 z m -2.64232,-0.26595 v -0.52332 h 0.26595 0.26595 v 0.26595 0.26595 h 0.52331 0.52332 v 0.25737 0.25736 h -0.78926 -0.78927 z m 0.5319,-0.78927 v -0.26595 h 0.25737 0.25737 v 0.26595 0.26595 h -0.25737 -0.25737 z m -1.0638,-0.53189 v -0.26595 h 0.5319 0.5319 v 0.26595 0.26594 h -0.5319 -0.5319 z m -0.51473,-1.32117 v -1.05521 h 0.25736 0.25737 v 1.05521 1.05522 h -0.25737 -0.25736 z m 0.51473,-1.32116 v -0.26595 h 0.26595 0.26595 v 0.26595 0.26595 h -0.26595 -0.26595 z m 0.5319,-1.06379 v -0.79784 h 0.26595 0.26595 v 0.79784 0.79784 h -0.26595 -0.26595 z m 0.5319,-1.05522 v -0.25736 h 0.25737 0.25737 v 0.25736 0.25738 h -0.25737 -0.25737 z m 0.51474,1.05522 v -0.79784 h 0.26594 0.26595 v 0.79784 0.79784 h -0.26595 -0.26594 z m 0.53189,-1.05522 v -0.25736 h 0.26595 0.26595 v 0.25736 0.25738 h -0.26595 -0.26595 z m 0.5319,1.32117 v -1.06379 h 0.26595 0.26594 v 1.06379 1.06379 h -0.26594 -0.26595 z" class="jbKcdPyw_0"></path>
    </clipPath>
    <clipPath clipPathUnits="userSpaceOnUse" id="clipPath1120">
      <path id="path1122" style="fill: rgb(255, 255, 255); fill-opacity: 1; stroke: none; stroke-width: 0.017185;" d="m 119.16302,212.75096 v -0.26595 h 0.26594 0.26595 v 0.26595 0.26595 h -0.26595 -0.26594 z m -4.75275,1.59569 v -0.26595 h 0.25737 0.25737 v 0.26595 0.26595 h -0.25737 -0.25737 z m 1.04663,-0.79785 v -0.53189 h 0.26595 0.26595 v -0.26595 -0.26595 h 0.26595 0.26594 v -0.26595 -0.26594 h 0.5319 0.5319 v 0.26594 0.26595 h -0.26595 -0.26595 v 0.26595 0.26595 h -0.26595 -0.26595 v 0.53189 0.5319 h -0.53189 -0.5319 z m 1.59569,0.79785 v -0.26595 h 0.52332 0.52331 v 0.26595 0.26595 h -0.52331 -0.52332 z m 2.11043,-1.59569 v -0.26595 h 0.26594 0.26595 v 0.26595 0.26595 h -0.26595 -0.26594 z m -5.28465,-0.78927 v -1.05521 h 0.26595 0.26595 v -0.26595 -0.26595 h 0.25737 0.25737 v 0.26595 0.26595 h 0.26594 0.26595 v 1.05521 1.05522 h -0.78926 -0.78927 z m 1.04664,0 v -0.52331 h -0.25737 -0.25737 v 0.52331 0.52332 h 0.25737 0.25737 z m -0.51474,-2.91685 v -0.26594 h 0.25737 0.25737 v 0.26594 0.26595 h -0.25737 -0.25737 z m 1.04663,0 v -0.26594 h 0.26595 0.26595 v 0.26594 0.26595 h -0.26595 -0.26595 z" class="jbKcdPyw_1"></path>
    </clipPath>
    <clipPath clipPathUnits="userSpaceOnUse" id="clipPath1133">
      <path id="path1135" style="fill: rgb(199, 225, 241); fill-opacity: 1; stroke: none; stroke-width: 0.017185;" d="m 118.63112,214.34665 v -0.26595 h 0.26595 0.26595 v 0.26595 0.26595 h -0.26595 -0.26595 z m -1.57853,-1.06379 v -0.26595 h 0.26595 0.26595 v -0.26595 -0.26595 h 0.25737 0.25736 v 0.26595 0.26595 h 0.26595 0.26595 v 0.26595 0.26594 h -0.78926 -0.78927 z m 0.5319,-1.58712 v -0.25736 h 0.25737 0.25736 v 0.25736 0.25738 h -0.25736 -0.25737 z m -1.59569,0 v -0.25736 h 0.26595 0.26594 v 0.25736 0.25738 h -0.26594 -0.26595 z m -0.5319,-0.52331 v -0.26595 h 0.26595 0.26595 v 0.26595 0.26595 h -0.26595 -0.26595 z m -2.11043,0 v -0.26595 h 0.26595 0.26595 v 0.26595 0.26595 h -0.26595 -0.26595 z m 0.5319,-0.5319 v -0.26595 h 0.26595 0.26595 v 0.26595 0.26595 h -0.26595 -0.26595 z m 1.04664,0 v -0.26595 h 0.26594 0.26595 v 0.26595 0.26595 h -0.26595 -0.26594 z m 0.53189,-1.06379 v -0.26595 h 0.26595 0.26595 v 0.26595 0.26595 h -0.26595 -0.26595 z m -1.04663,0 v -0.26595 h 0.25737 0.25737 v 0.26595 0.26595 h -0.25737 -0.25737 z" class="jbKcdPyw_2"></path>
    </clipPath>
    <clipPath clipPathUnits="userSpaceOnUse" id="clipPath1146">
      <path id="path1148" style="fill: rgb(169, 209, 234); fill-opacity: 1; stroke: none; stroke-width: 0.017185;" d="m 118.09922,213.81475 v -0.26595 h 0.5319 0.5319 v 0.26595 0.26595 h -0.5319 -0.5319 z m 0,-1.06379 v -0.26595 h 0.26595 0.26595 v 0.26595 0.26595 h -0.26595 -0.26595 z m -0.51473,-0.5319 v -0.26594 h 0.25737 0.25736 v 0.26594 0.26595 h -0.25736 -0.25737 z m -0.5319,0.5319 v -0.26595 h 0.26595 0.26595 v 0.26595 0.26595 h -0.26595 -0.26595 z m -0.5319,0.5319 v -0.26595 h 0.26595 0.26595 v 0.26595 0.26594 h -0.26595 -0.26595 z m 0,-1.58712 v -0.25736 h 0.26595 0.26595 v 0.25736 0.25738 h -0.26595 -0.26595 z m -0.53189,0.52332 v -0.26594 h 0.26595 0.26594 v 0.26594 0.26595 h -0.26594 -0.26595 z m -0.5319,0.5319 v -0.26595 h 0.26595 0.26595 v 0.26595 0.26595 h -0.26595 -0.26595 z m -0.53189,0.79784 v -0.53189 h 0.26594 0.26595 v 0.53189 0.5319 h -0.26595 -0.26594 z m 0.53189,-3.17422 v -0.53189 h 0.26595 0.26595 v 0.53189 0.5319 h -0.26595 -0.26595 z" class="jbKcdPyw_3"></path>
    </clipPath>
    <clipPath clipPathUnits="userSpaceOnUse" id="clipPath1154">
      <path style="fill: rgb(170, 205, 228); fill-opacity: 1; stroke: none; stroke-width: 0.017185;" d="m 114.41027,210.10864 v -0.26595 h 0.25737 0.25737 v 0.26595 0.26594 h -0.25737 -0.25737 z" id="path1156" class="jbKcdPyw_4"></path>
    </clipPath>
    <clipPath clipPathUnits="userSpaceOnUse" id="clipPath1163">
      <path id="path1165" style="fill: rgb(129, 171, 205); fill-opacity: 1; stroke: none; stroke-width: 0.017185;" d="m 118.63112,213.28286 v -0.26595 h 0.26595 0.26595 v 0.26595 0.26594 h -0.26595 -0.26595 z m -0.5319,-1.0638 v -0.26594 h 0.26595 0.26595 v 0.26594 0.26595 h -0.26595 -0.26595 z m -1.57853,1.59569 v -0.26595 h 0.26595 0.26595 v 0.26595 0.26595 h -0.26595 -0.26595 z m -0.53189,-2.64232 v -0.26595 h 0.26595 0.26594 v 0.26595 0.26595 h -0.26594 -0.26595 z m -1.57853,2.11043 v -0.26595 h 0.25737 0.25737 v 0.26595 0.26594 h -0.25737 -0.25737 z" class="jbKcdPyw_5"></path>
    </clipPath>
    <clipPath clipPathUnits="userSpaceOnUse" id="clipPath1172">
      <path id="path1174" style="fill: rgb(240, 240, 240); fill-opacity: 1; stroke: none; stroke-width: 0.017185;" d="m 118.09922,214.34665 v -0.26595 h 0.26595 0.26595 v 0.26595 0.26595 h -0.26595 -0.26595 z m -1.04663,-2.65091 v -0.25736 h 0.26595 0.26595 v 0.25736 0.25738 h -0.26595 -0.26595 z m -2.12758,2.65091 v -0.26595 h 0.26594 0.26595 v 0.26595 0.26595 h -0.26595 -0.26594 z m 0.53189,-2.38496 v -0.52331 h 0.26595 0.26595 v 0.52331 0.52332 h -0.26595 -0.26595 z m -2.11043,0.26595 v -0.78926 h 0.26595 0.26595 v 0.78926 0.78927 h -0.26595 -0.26595 z" class="jbKcdPyw_6"></path>
    </clipPath>
    <clipPath clipPathUnits="userSpaceOnUse" id="clipPath1180">
      <path style="fill: rgb(0, 0, 0); fill-opacity: 1; stroke: none; stroke-width: 0.017185;" d="m 114.41027,211.96169 v -0.52331 h 0.25737 0.25737 v 0.52331 0.52332 h -0.25737 -0.25737 z" id="path1182" class="jbKcdPyw_7"></path>
    </clipPath>
  </defs>
  <metadata id="metadata5">
    <rdf:rdf>
      <cc:work rdf:about="">
        <dc:format>image/svg+xml</dc:format>
        <dc:type rdf:resource="http://purl.org/dc/dcmitype/StillImage"></dc:type>
        <dc:title></dc:title>
      </cc:work>
    </rdf:rdf>
  </metadata>
  <g id="layer1" transform="translate(-101.85794,-203.14274)">
    <path style="fill: none; stroke: rgb(255, 255, 255); stroke-width: 7.37791; stroke-linecap: butt; stroke-linejoin: miter; stroke-miterlimit: 4; stroke-opacity: 1;" d="m 116.52069,215.12733 c 0,-2.28746 0,-4.57519 0,-6.86318" id="path1111" clip-path="url(#clipPath1120)" transform="translate(-10.9738,-5.12142)" class="jbKcdPyw_8"></path>
    <path style="fill: none; stroke: rgb(199, 225, 241); stroke-width: 7.37791; stroke-linecap: butt; stroke-linejoin: miter; stroke-miterlimit: 4; stroke-opacity: 1;" d="m 116.52069,215.12733 c 0,-2.28746 0,-4.57519 0,-6.86318" id="path1125" clip-path="url(#clipPath1133)" transform="translate(-10.9738,-5.12142)" class="jbKcdPyw_9"></path>
    <path style="fill: none; stroke: rgb(56, 61, 97); stroke-width: 7.37791; stroke-linecap: butt; stroke-linejoin: miter; stroke-miterlimit: 4; stroke-opacity: 1;" d="m 116.52069,215.12733 c 0,-2.28746 0,-4.57519 0,-6.86318" id="path887" clip-path="url(#clipPath1107)" transform="translate(-10.9738,-5.12142)" class="jbKcdPyw_10"></path>
    <path style="fill: none; stroke: rgb(169, 209, 234); stroke-width: 7.37791; stroke-linecap: butt; stroke-linejoin: miter; stroke-miterlimit: 4; stroke-opacity: 1;" d="m 116.5207,215.12734 c 0,-2.28746 0,-4.57519 0,-6.86318" id="path1142" clip-path="url(#clipPath1146)" transform="translate(-10.9738,-5.12142)" class="jbKcdPyw_11"></path>
    <path style="fill: none; stroke: rgb(170, 205, 228); stroke-width: 7.37791; stroke-linecap: butt; stroke-linejoin: miter; stroke-miterlimit: 4; stroke-opacity: 1;" d="m 116.5207,215.12734 c 0,-2.28746 0,-4.57519 0,-6.86318" id="path1150" clip-path="url(#clipPath1154)" transform="translate(-10.9738,-5.12142)" class="jbKcdPyw_12"></path>
    <path style="fill: none; stroke: rgb(129, 171, 205); stroke-width: 7.37791; stroke-linecap: butt; stroke-linejoin: miter; stroke-miterlimit: 4; stroke-opacity: 1;" d="m 116.5207,215.12734 c 0,-2.28746 0,-4.57519 0,-6.86318" id="path1159" clip-path="url(#clipPath1163)" transform="translate(-10.9738,-5.12142)" class="jbKcdPyw_13"></path>
    <path style="fill: none; stroke: rgb(240, 240, 240); stroke-width: 7.37791; stroke-linecap: butt; stroke-linejoin: miter; stroke-miterlimit: 4; stroke-opacity: 1;" d="m 116.5207,215.12734 c 0,-2.28746 0,-4.57519 0,-6.86318" id="path1168" clip-path="url(#clipPath1172)" transform="translate(-10.9738,-5.12142)" class="jbKcdPyw_14"></path>
    <path style="fill: none; stroke: rgb(0, 0, 0); stroke-width: 7.37791; stroke-linecap: butt; stroke-linejoin: miter; stroke-miterlimit: 4; stroke-opacity: 1;" d="m 116.5207,215.12734 c 0,-2.28746 0,-4.57519 0,-6.86318" id="path1176" clip-path="url(#clipPath1180)" transform="translate(-10.9738,-5.12142)" class="jbKcdPyw_15"></path>
  </g>
<style data-made-with="vivus-instant">.jbKcdPyw_0{stroke-dasharray:66 68;stroke-dashoffset:67;animation:jbKcdPyw_draw 6666ms ease 0ms forwards;}.jbKcdPyw_1{stroke-dasharray:34 36;stroke-dashoffset:35;animation:jbKcdPyw_draw 6666ms ease 222ms forwards;}.jbKcdPyw_2{stroke-dasharray:25 27;stroke-dashoffset:26;animation:jbKcdPyw_draw 6666ms ease 444ms forwards;}.jbKcdPyw_3{stroke-dasharray:25 27;stroke-dashoffset:26;animation:jbKcdPyw_draw 6666ms ease 666ms forwards;}.jbKcdPyw_4{stroke-dasharray:3 5;stroke-dashoffset:4;animation:jbKcdPyw_draw 6666ms ease 888ms forwards;}.jbKcdPyw_5{stroke-dasharray:11 13;stroke-dashoffset:12;animation:jbKcdPyw_draw 6666ms ease 1111ms forwards;}.jbKcdPyw_6{stroke-dasharray:14 16;stroke-dashoffset:15;animation:jbKcdPyw_draw 6666ms ease 1333ms forwards;}.jbKcdPyw_7{stroke-dasharray:4 6;stroke-dashoffset:5;animation:jbKcdPyw_draw 6666ms ease 1555ms forwards;}.jbKcdPyw_8{stroke-dasharray:7 9;stroke-dashoffset:8;animation:jbKcdPyw_draw 6666ms ease 1777ms forwards;}.jbKcdPyw_9{stroke-dasharray:7 9;stroke-dashoffset:8;animation:jbKcdPyw_draw 6666ms ease 2000ms forwards;}.jbKcdPyw_10{stroke-dasharray:7 9;stroke-dashoffset:8;animation:jbKcdPyw_draw 6666ms ease 2222ms forwards;}.jbKcdPyw_11{stroke-dasharray:7 9;stroke-dashoffset:8;animation:jbKcdPyw_draw 6666ms ease 2444ms forwards;}.jbKcdPyw_12{stroke-dasharray:7 9;stroke-dashoffset:8;animation:jbKcdPyw_draw 6666ms ease 2666ms forwards;}.jbKcdPyw_13{stroke-dasharray:7 9;stroke-dashoffset:8;animation:jbKcdPyw_draw 6666ms ease 2888ms forwards;}.jbKcdPyw_14{stroke-dasharray:7 9;stroke-dashoffset:8;animation:jbKcdPyw_draw 6666ms ease 3111ms forwards;}.jbKcdPyw_15{stroke-dasharray:7 9;stroke-dashoffset:8;animation:jbKcdPyw_draw 6666ms ease 3333ms forwards;}@keyframes jbKcdPyw_draw{100%{stroke-dashoffset:0;}}@keyframes jbKcdPyw_fade{0%{stroke-opacity:1;}97.1830985915493%{stroke-opacity:1;}100%{stroke-opacity:0;}}</style></svg>
